<?xml version="1.0" standalone="no"?>
<svg viewBox="0 0 200 200" xmlns="http://www.w3.org/2000/svg">
  <path fill="#C4C4C4" d="M41.2,-71C47.3,-60.3,41.7,-38.4,40.3,-23.7C38.8,-8.9,41.5,-1.3,43.2,8.2C45,17.7,45.8,29.1,39.9,32.9C34,36.7,21.3,33,11.4,33.6C1.4,34.2,-5.8,39.1,-15.8,41.7C-25.8,44.3,-38.7,44.5,-46,38.5C-53.2,32.5,-54.7,20.3,-59.7,6.6C-64.6,-7,-73.1,-22.1,-69.2,-32.1C-65.4,-42.1,-49.4,-47,-35.8,-54.3C-22.2,-61.6,-11.1,-71.2,3.2,-76.3C17.6,-81.3,35.2,-81.8,41.2,-71Z" transform="translate(100 100)" />
</svg>
