<?xml version="1.0" standalone="no"?>
<svg viewBox="0 0 200 200" xmlns="http://www.w3.org/2000/svg">
  <path fill="#A7F0BA" d="M24.7,-43.5C32.9,-38,41.2,-33.3,53.4,-26.2C65.6,-19.1,81.7,-9.5,74.8,-4C67.9,1.6,38,3.1,25.8,10.3C13.6,17.4,19.2,30,17.8,44.4C16.4,58.7,8.2,74.7,-1.1,76.6C-10.5,78.6,-21,66.5,-29.4,56.3C-37.8,46,-44.2,37.6,-39.2,28.6C-34.1,19.5,-17.6,9.7,-11.4,3.6C-5.2,-2.6,-9.2,-5.1,-13,-12C-16.8,-18.9,-20.3,-30.1,-18.1,-39.1C-15.9,-48.1,-8,-54.8,0.1,-55.1C8.2,-55.3,16.4,-49,24.7,-43.5Z" transform="translate(100 100)" />
</svg>
